<?xml version="1.0" standalone="no"?>
<!DOCTYPE svg PUBLIC "-//W3C//DTD SVG 20010904//EN"
 "http://www.w3.org/TR/2001/REC-SVG-20010904/DTD/svg10.dtd">
<svg version="1.0" xmlns="http://www.w3.org/2000/svg"
 width="512.000000pt" height="512.000000pt" viewBox="0 0 512.000000 512.000000"
 preserveAspectRatio="xMidYMid meet">
<metadata>
Created by potrace 1.14, written by Peter Selinger 2001-2017
</metadata>
<g transform="translate(0.000000,512.000000) scale(0.100000,-0.100000)"
fill="#000000" stroke="none">
<path d="M935 5101 c-60 -27 -80 -69 -80 -166 0 -128 17 -237 61 -386 4 -15 0
-16 -138 -22 -21 -1 -38 -4 -38 -7 0 -3 -10 -6 -22 -7 -40 -1 -62 -8 -108 -32
-40 -21 -80 -60 -71 -70 1 -2 -3 -7 -9 -11 -13 -8 -15 -76 -4 -130 4 -19 20
-55 35 -81 16 -25 29 -51 29 -58 0 -6 4 -11 8 -11 4 0 15 -12 24 -27 9 -16 28
-40 42 -55 14 -15 26 -31 26 -37 0 -5 6 -11 13 -14 6 -2 -10 -17 -37 -33 -27
-16 -61 -39 -76 -51 -15 -13 -33 -23 -39 -23 -6 0 -11 -4 -11 -9 0 -4 -24 -24
-52 -43 -29 -20 -84 -65 -123 -102 -38 -36 -72 -66 -75 -66 -3 0 -12 -10 -20
-22 -8 -11 -23 -28 -33 -37 -9 -8 -17 -21 -17 -28 0 -7 -4 -13 -10 -13 -5 0
-10 -7 -10 -15 0 -8 -3 -15 -8 -15 -8 0 -38 -61 -34 -72 1 -5 -2 -8 -7 -8 -15
0 -33 -93 -28 -148 5 -52 26 -112 39 -112 5 0 8 -6 8 -14 0 -18 89 -106 107
-106 7 0 13 -4 13 -9 0 -5 31 -24 69 -43 l69 -33 -44 -58 c-24 -31 -44 -62
-44 -67 0 -6 -4 -10 -10 -10 -5 0 -10 -7 -10 -15 0 -8 -4 -15 -10 -15 -5 0
-10 -7 -10 -15 0 -8 -4 -15 -10 -15 -5 0 -10 -7 -10 -15 0 -8 -5 -15 -12 -15
-6 0 -9 -3 -5 -6 3 -4 -7 -26 -23 -49 -16 -23 -26 -45 -23 -49 4 -3 2 -6 -4
-6 -6 0 -21 -24 -33 -52 -38 -89 -52 -123 -52 -125 1 -2 -5 -20 -13 -42 -43
-122 -39 -299 8 -358 5 -7 6 -13 3 -13 -4 0 -1 -6 6 -13 7 -8 24 -28 38 -45
14 -18 31 -32 38 -32 6 0 12 -4 12 -10 0 -8 50 -40 70 -45 3 -1 19 -8 35 -15
17 -8 35 -15 40 -15 6 -1 17 -5 26 -9 9 -4 29 -9 45 -11 16 -2 30 -4 32 -6 3
-2 37 -6 75 -8 l32 -2 -49 -25 c-27 -14 -54 -30 -60 -35 -6 -5 -47 -35 -91
-67 -44 -32 -87 -65 -95 -73 -8 -8 -32 -29 -53 -47 -21 -17 -35 -32 -32 -32 3
0 -3 -8 -13 -18 -26 -29 -52 -62 -52 -68 0 -2 -9 -14 -20 -26 -24 -26 -56 -93
-86 -178 -18 -53 -22 -83 -19 -160 3 -132 38 -198 130 -247 76 -41 184 -46
565 -28 132 7 153 6 144 -6 -41 -52 -104 -143 -104 -151 0 -5 -9 -18 -20 -30
-11 -12 -20 -30 -20 -40 0 -10 -4 -18 -9 -18 -5 0 -11 -8 -14 -17 -3 -10 -13
-38 -22 -63 -18 -49 -29 -140 -17 -140 4 0 8 -10 9 -22 3 -28 55 -75 94 -83
16 -4 29 -10 29 -14 0 -4 14 -6 30 -5 17 1 32 -1 34 -5 5 -8 158 -5 229 4 124
16 145 20 167 28 8 3 33 8 55 12 67 11 79 13 115 24 43 14 53 14 45 1 -3 -5
-3 -10 2 -10 4 0 14 -14 21 -30 8 -17 20 -30 28 -30 8 0 14 -7 14 -16 0 -8 5
-12 10 -9 6 3 10 3 10 -2 0 -10 49 -33 70 -33 9 0 20 -4 26 -9 9 -9 46 -17
139 -29 51 -6 1462 -9 1570 -2 33 1 65 6 70 9 6 3 17 6 25 8 56 8 89 17 120
33 43 22 100 70 100 85 1 20 29 47 41 39 11 -6 33 -10 87 -16 6 -1 12 -4 12
-7 0 -3 12 -7 28 -8 28 -1 87 -10 87 -13 0 -4 93 -19 165 -27 119 -11 199 -8
280 12 14 3 30 7 37 9 24 5 65 43 82 76 18 36 22 105 7 128 -4 7 -5 16 -2 19
3 3 -1 15 -9 27 -8 11 -15 26 -15 33 0 19 -129 233 -140 233 -6 0 -10 5 -10
12 0 6 -8 20 -17 31 -18 19 -16 20 137 12 411 -19 486 -15 570 31 85 46 119
110 126 238 4 86 -6 145 -36 212 -11 23 -20 46 -20 50 0 10 -53 88 -62 92 -5
2 -8 9 -8 17 0 7 -35 49 -77 93 -81 83 -208 182 -303 236 l-55 31 44 7 c24 4
48 5 52 2 5 -3 9 -1 9 3 0 5 8 9 18 10 43 3 62 8 62 16 0 4 4 6 8 3 5 -3 21 2
36 10 16 7 34 14 41 14 7 0 18 7 25 15 7 8 15 13 19 10 13 -7 121 104 121 125
0 6 4 10 8 10 27 0 47 192 29 275 -37 170 -120 339 -269 550 l-64 91 67 32
c61 30 77 40 134 90 31 26 81 102 93 142 18 57 8 148 -23 214 -28 61 -93 156
-107 156 -4 0 -8 4 -8 9 0 5 -28 36 -62 68 -34 32 -72 68 -85 80 -13 12 -23
19 -23 15 0 -4 -4 -2 -8 3 -4 6 -32 28 -62 50 -30 21 -60 43 -65 49 -14 15
-66 46 -87 53 -10 3 -18 9 -18 14 0 5 -7 9 -16 9 -13 0 -13 4 3 31 10 17 26
37 36 43 9 6 17 16 17 23 0 7 4 13 8 13 10 0 85 126 99 167 6 17 9 34 6 37 -4
3 -2 6 3 6 14 0 10 81 -6 110 -7 14 -23 35 -35 47 -23 23 -93 58 -109 55 -4
-2 -13 1 -20 6 -6 4 -21 7 -33 6 -13 0 -23 2 -23 5 0 4 -39 7 -87 8 -49 0 -87
2 -86 4 5 12 37 137 48 190 20 96 27 248 14 294 -12 44 -48 79 -94 93 -53 15
-91 7 -127 -26 -24 -22 -70 -93 -73 -112 0 -3 -17 -38 -38 -79 -20 -40 -37
-79 -37 -87 0 -7 -4 -14 -8 -16 -4 -1 -21 -30 -37 -63 -16 -33 -37 -71 -46
-85 -9 -14 -31 -52 -49 -85 -34 -63 -66 -99 -81 -89 -5 3 -9 1 -9 -3 0 -5 -8
-9 -17 -9 -22 -1 -63 -9 -128 -24 -27 -7 -62 -14 -77 -17 l-28 -4 -1 68 c-1
37 -3 82 -5 98 -32 287 -90 448 -186 516 -47 34 -130 34 -200 0 -31 -16 -63
-34 -72 -42 -9 -8 -27 -23 -41 -34 -37 -29 -85 -74 -85 -80 0 -3 -17 -23 -39
-45 -21 -21 -37 -41 -35 -43 2 -2 -5 -12 -16 -22 -11 -10 -20 -24 -20 -32 0
-7 -4 -13 -8 -13 -5 0 -19 -19 -33 -42 -13 -23 -34 -58 -46 -77 -12 -20 -30
-51 -39 -68 -9 -18 -19 -33 -23 -33 -3 0 -19 24 -35 52 -34 62 -115 187 -133
206 -7 7 -13 16 -13 20 0 4 -18 26 -40 50 -22 24 -47 53 -57 65 -32 39 -118
105 -173 133 -103 52 -196 36 -257 -43 -32 -43 -65 -108 -78 -155 -2 -5 -3 -9
-5 -10 -3 -4 -7 -25 -24 -108 -23 -118 -25 -138 -32 -252 l-7 -107 -36 5 c-20
3 -40 8 -44 11 -5 3 -23 7 -40 10 -41 7 -62 11 -62 13 0 2 -57 11 -75 12 -23
1 -39 18 -62 62 -11 23 -23 43 -27 46 -3 3 -16 23 -27 45 -12 22 -35 65 -52
95 -32 60 -95 182 -98 190 -10 35 -28 70 -36 70 -5 0 -7 4 -4 9 8 12 -48 97
-76 115 -38 25 -89 28 -133 7z"/>
</g>
</svg>
